<?xml version="1.0" encoding="utf-8"?>
<!-- Generator: Adobe Illustrator 22.0.0, SVG Export Plug-In . SVG Version: 6.00 Build 0)  -->
<svg version="1.1" id="Layer_1" xmlns="http://www.w3.org/2000/svg" xmlns:xlink="http://www.w3.org/1999/xlink" x="0px" y="0px"
	 viewBox="0 0 28.3 28.3" style="enable-background:new 0 0 28.3 28.3;" xml:space="preserve">
<style type="text/css">
	.st0{fill:#536276;stroke:#536276;stroke-miterlimit:10;}
</style>
<g>
	<path class="st0" d="M5.2,21.5H4.5c-0.6,0-1.1-0.5-1.1-1.1V2.4c0-0.6,0.5-1.1,1.1-1.1h13c0.6,0,1.1,0.5,1.1,1.1h0.8
		c0-1-0.9-1.9-1.9-1.9h-13c-1.1,0-1.9,0.9-1.9,1.9v17.9c0,1.1,0.9,1.9,1.9,1.9h0.8V21.5z"/>
	<path class="st0" d="M23.8,5.3h-2.4l0,0h-0.8l0,0H10.2c-1.1,0-2,0.9-2,2v15.9v0.3v0.8v0.3v1.4c0,1.1,0.9,2,2,2h13.6
		c1.1,0,2-0.9,2-2V7.3C25.8,6.2,24.9,5.3,23.8,5.3z M25,25.9c0,0.6-0.6,1.2-1.2,1.2H10.2c-0.7,0-1.2-0.5-1.2-1.2V7.3
		c0-0.6,0.6-1.2,1.2-1.2h13.6c0.7,0,1.2,0.5,1.2,1.2V25.9z"/>
</g>
</svg>
