<?xml version="1.0" encoding="utf-8"?>
<!-- Generator: Adobe Illustrator 22.0.0, SVG Export Plug-In . SVG Version: 6.00 Build 0)  -->
<svg version="1.1" id="Layer_1" xmlns="http://www.w3.org/2000/svg" xmlns:xlink="http://www.w3.org/1999/xlink" x="0px" y="0px"
	 viewBox="0 0 28.3 28.3" style="enable-background:new 0 0 28.3 28.3;" xml:space="preserve">
<style type="text/css">
	.st0{fill:#536276;}
</style>
<path class="st0" d="M14.2,0.9C8.5,0.9,3.8,4.4,1.9,9.3l2,0.8C5.5,6,9.4,3.1,14.2,3.1c3.6,0,6.8,1.8,8.8,4.4h-4.4v2.2h7.8V2h-2.2
	v3.4C21.7,2.6,18.1,0.9,14.2,0.9z M24.4,18.2c-1.6,4.1-5.5,7.1-10.3,7.1c-3.6,0-6.8-1.8-8.8-4.4h4.4v-2.2H2v7.8h2.2v-3.4
	c2.4,2.7,6,4.5,10,4.5c5.7,0,10.4-3.5,12.3-8.4L24.4,18.2z"/>
</svg>
